:SAMPLES-PER-SECOND 30
:FULLY-SPECIFIED
:DEGREES
391
root  0.822534 34.2237 18.6592 5.52937 43.1378 -1.54423
LeftUpLeg  -9.63512 3.99342 5.25515
LeftLeg  10.8291 -3.97977 -0.499881
LeftFoot  0.784125 0.00358964 -0.0645135
LeftToes  -20.5246 1.92152e-006 4.03786e-008
Spine  2.57198 0.625315 -1.28131
Spine1  5.00223 1.2025 -2.32066
RightShoulder  0.00536593 6.62749 2.56577
RightArm  -82.6202 -4.543 44.8744
RightForeArm  5.95953 58.5617 16.8024
RightHand  4.5338 -13.477 -36.6586
LeftShoulder1  0.0406932 0.572964 -9.9632
LeftArm  -23.8105 13.677 -64.4844
LeftForeArm  24.2343 -19.2257 -3.51949
LeftHand  0.223146 4.59743 5.17685
HEad  -2.45959 -32.1579 -0.23666
RightUpLeg  -11.1945 -12.8542 -4.98565
RightLeg  9.38772 -1.38968 -0.137313
RightFoot  6.57615 0.0309355 -0.147279
RightToes  -35.9755 -0.187158 -0.288781
392
root  0.624217 34.2177 18.9279 5.50189 44.332 -1.67717
LeftUpLeg  -9.77784 3.41162 5.90698
LeftLeg  10.7012 -4.38115 -0.540141
LeftFoot  1.20197 0.00621774 -0.112904
LeftToes  -21.6365 1.92152e-006 4.03786e-008
Spine  2.48437 0.874112 -1.01396
Spine1  4.75412 1.76691 -1.94243
RightShoulder  0.0170472 6.69435 2.44214
RightArm  -82.5356 3.23946 41.5085
RightForeArm  4.84162 51.3286 12.7401
RightHand  4.23015 -13.5253 -34.2127
LeftShoulder1  0.0416368 0.15098 -9.91995
LeftArm  -23.9893 14.0847 -64.8011
LeftForeArm  24.4334 -18.401 -3.35717
LeftHand  0.234769 4.87024 5.13903
HEad  -3.13782 -32.499 0.303909
RightUpLeg  -10.8824 -13.3501 -4.40755
RightLeg  9.34988 -1.91147 -0.188085
RightFoot  5.88297 0.0315226 -0.182716
RightToes  -35.2974 -0.182048 -0.286014
393
root  0.409227 34.2127 19.1754 5.46129 44.5053 -1.86116
LeftUpLeg  -9.86854 3.43728 6.54319
LeftLeg  10.7044 -4.28745 -0.528876
LeftFoot  1.50803 0.00754787 -0.141161
LeftToes  -22.4631 1.92152e-006 4.03786e-008
Spine  2.47146 1.37843 -0.812472
Spine1  4.6115 2.90931 -1.76186
RightShoulder  0.0351302 6.50472 3.03705
RightArm  -73.3726 10.6852 38.2716
RightForeArm  9.96707 43.5431 9.652
RightHand  2.79151 -12.9825 -23.7923
LeftShoulder1  0.0444272 -0.129243 -9.85968
LeftArm  -23.8074 14.3606 -65.0146
LeftForeArm  24.7702 -17.5824 -3.19762
LeftHand  0.239068 5.01693 5.07598
HEad  -3.70152 -33.061 1.23728
RightUpLeg  -10.7827 -13.3887 -3.72443
RightLeg  9.16291 -1.95979 -0.186411
RightFoot  5.40188 0.0286157 -0.163444
RightToes  -34.6427 -0.177163 -0.282904
394
root  0.214034 34.2159 19.405 5.51625 43.8935 -1.89784
LeftUpLeg  -9.75358 3.77129 7.01528
LeftLeg  10.6604 -3.75358 -0.46035
LeftFoot  1.78125 0.00734359 -0.142526
LeftToes  -23.0869 1.92152e-006 4.03786e-008
Spine  2.40697 1.88599 -0.826798
Spine1  4.396 4.05747 -1.95829
RightShoulder  0.0498205 6.31673 2.61202
RightArm  -64.1191 15.5193 39.1859
RightForeArm  1.61687 39.3311 8.29531
RightHand  6.42034 -14.2717 -47.8762
LeftShoulder1  0.0451293 -0.445591 -9.57856
LeftArm  -24.2276 15.1086 -65.0984
LeftForeArm  25.5603 -16.8116 -3.0486
LeftHand  0.232681 4.97198 4.97856
HEad  -4.48214 -33.9713 2.92366
RightUpLeg  -10.7873 -13.6317 -3.12939
RightLeg  8.9117 -1.08054 -0.0973934
RightFoot  5.01293 0.0210943 -0.0624984
RightToes  -34.0306 -0.172638 -0.278981
395
root  0.031924 34.227 19.6264 5.53615 42.6641 -1.9333
LeftUpLeg  -9.48923 4.16453 7.44229
LeftLeg  10.6842 -2.62876 -0.323999
LeftFoot  1.99191 0.00570976 -0.115542
LeftToes  -23.5079 1.92152e-006 4.03786e-008
Spine  2.26219 2.07664 -0.838408
Spine1  4.11288 4.47413 -2.03519
RightShoulder  0.0535688 7.23509 1.81787
RightArm  -64.9547 12.2929 44.13
RightForeArm  7.10953 45.8199 10.459
RightHand  5.31614 -14.6904 -39.2273
LeftShoulder1  0.0369557 -0.241024 -9.38625
LeftArm  -25.2968 16.2906 -65.3303
LeftForeArm  26.7188 -15.9592 -2.88514
LeftHand  0.237198 4.98274 5.08597
HEad  -5.35805 -34.8197 4.87024
RightUpLeg  -10.881 -14.1728 -2.51653
RightLeg  8.76699 0.712593 0.0647985
RightFoot  4.5996 0.0116032 0.0886151
RightToes  -33.1546 -0.166236 -0.273282
396
root  -0.111295 34.2343 19.8453 5.55395 41.0115 -2.03215
LeftUpLeg  -9.24536 4.69415 7.8557
LeftLeg  11.0317 -1.24616 -0.162003
LeftFoot  1.91106 0.0028748 -0.0606741
LeftToes  -23.6189 1.92152e-006 4.03786e-008
Spine  2.14692 1.93707 -0.706527
Spine1  3.95456 4.18344 -1.75964
RightShoulder  0.0469625 5.65519 3.56513
RightArm  -55.6103 9.59225 44.4649
RightForeArm  14.8955 51.9057 13.0287
RightHand  4.23031 -14.7776 -31.4116
LeftShoulder1  0.0283552 0.0627438 -8.96902
LeftArm  -27.5642 18.2147 -66.4656
LeftForeArm  27.9056 -15.2725 -2.75436
LeftHand  0.247649 4.95236 5.32107
HEad  -6.52997 -34.5704 6.57148
RightUpLeg  -11.1155 -14.7377 -1.8949
RightLeg  8.86106 2.93911 0.267708
RightFoot  4.13884 0.00485485 0.24315
RightToes  -32.4981 -0.161496 -0.268948
397
root  -0.215548 34.2359 20.0389 5.51233 38.7446 -2.07523
LeftUpLeg  -8.70608 5.15953 8.15216
LeftLeg  11.3613 0.733325 0.0975644
LeftFoot  1.72181 -0.000139683 0.0092866
LeftToes  -23.6237 1.92152e-006 4.03786e-008
Spine  1.97207 1.52481 -0.379001
Spine1  3.69582 3.34429 -1.10453
RightShoulder  0.0398296 3.93765 4.37491
RightArm  -47.4972 7.93925 45.2037
RightForeArm  23.3817 57.2285 15.9577
RightHand  3.53741 -13.9333 -27.9822
LeftShoulder1  0.0215307 0.0403926 -8.53862
LeftArm  -28.8155 21.3341 -67.8978
LeftForeArm  27.3936 -14.9059 -2.68537
LeftHand  0.242711 5.1669 4.99859
HEad  -6.59221 -31.7493 5.87954
RightUpLeg  -11.2713 -14.2865 -1.43744
RightLeg  8.91688 4.70485 0.432174
RightFoot  3.82622 0.00102108 0.344419
RightToes  -31.9789 -0.158226 -0.265902
398
root  -0.294137 34.2399 20.2062 5.36817 36.1896 -2.08126
LeftUpLeg  -8.02742 5.53564 8.32416
LeftLeg  11.8696 3.22413 0.462275
LeftFoot  1.47342 -0.000961549 0.074769
LeftToes  -23.4766 1.92152e-006 4.03786e-008
Spine  1.90611 1.05564 -0.0659612
Spine1  3.62431 2.40274 -0.503071
RightShoulder  0.037266 3.78427 3.84849
RightArm  -40.0398 4.1955 46.7065
RightForeArm  26.3742 62.5378 19.933
RightHand  3.26106 -12.6826 -28.3506
LeftShoulder1  0.0147134 0.180242 -8.09921
LeftArm  -28.3524 23.7075 -69.2236
LeftForeArm  26.5852 -14.2316 -2.55902
LeftHand  0.220775 5.55728 4.1713
HEad  -6.24502 -27.0039 4.06071
RightUpLeg  -11.117 -12.8041 -1.13465
RightLeg  8.55287 5.64467 0.481991
RightFoot  3.853 -0.00062462 0.407322
RightToes  -31.6539 -0.155474 -0.263295
399
root  -0.360773 34.2562 20.3407 5.38235 33.5865 -1.88743
LeftUpLeg  -7.54156 6.42031 8.10405
LeftLeg  12.6049 6.11722 0.957098
LeftFoot  1.39611 -0.00132007 0.145039
LeftToes  -23.2003 1.92152e-006 4.03786e-008
Spine  1.85864 0.837274 0.0638819
Spine1  3.55891 1.95795 -0.243579
RightShoulder  0.0361607 3.89536 4.18245
RightArm  -34.0014 -0.639255 48.5278
RightForeArm  28.9215 66.1121 23.6031
RightHand  2.80923 -11.5621 -26.8443
LeftShoulder1  0.0114964 0.288624 -7.93065
LeftArm  -27.186 24.7505 -69.9026
LeftForeArm  27.3197 -13.2996 -2.38501
LeftHand  0.177797 6.11134 2.95642
HEad  -6.52449 -22.6314 3.1437
RightUpLeg  -11.0468 -11.3621 -1.02032
RightLeg  8.22598 6.62298 0.527106
RightFoot  3.98735 -0.00384511 0.487921
RightToes  -31.1152 -0.152477 -0.260413
400
root  -0.413801 34.2689 20.4386 5.56573 31.225 -1.38797
LeftUpLeg  -7.41283 7.84965 7.42299
LeftLeg  13.7582 9.13721 1.61482
LeftFoot  1.35243 -0.00257046 0.217776
LeftToes  -22.5315 1.92152e-006 4.03786e-008
Spine  1.88185 0.82798 0.0377971
Spine1  3.61876 1.9261 -0.26438
RightShoulder  0.0363981 2.92524 5.71139
RightArm  -28.0396 -4.95272 50.6452
RightForeArm  30.361 67.0997 24.8286
RightHand  2.62245 -11.2472 -25.7883
LeftShoulder1  0.0108921 0.600565 -8.31871
LeftArm  -26.6431 24.2148 -69.8085
LeftForeArm  28.9296 -12.1803 -2.17745
LeftHand  0.122419 6.29338 1.85452
HEad  -7.47036 -19.5517 2.81053
RightUpLeg  -11.2763 -10.5066 -1.2081
RightLeg  8.50477 7.96145 0.671794
RightFoot  3.89635 -0.00773626 0.574013
RightToes  -30.8958 -0.150138 -0.258143
401
root  -0.457736 34.2624 20.5091 5.69334 29.4343 -1.03995
LeftUpLeg  -7.55822 9.01962 6.75485
LeftLeg  14.9944 12.1611 2.41145
LeftFoot  0.982158 -0.00182905 0.213387
LeftToes  -20.9382 1.92152e-006 4.03786e-008
Spine  1.94495 0.880132 0.0264891
Spine1  3.75129 1.99749 -0.233851
RightShoulder  0.0366479 2.3251 6.94291
RightArm  -24.4964 -9.8626 53.7073
RightForeArm  29.8097 64.5225 21.842
RightHand  2.45726 -10.4595 -25.989
LeftShoulder1  0.011374 0.890658 -8.86582
LeftArm  -26.8526 22.8147 -69.535
LeftForeArm  30.0905 -11.3727 -2.02878
LeftHand  0.113496 6.44721 1.6432
HEad  -8.44011 -17.5178 2.25232
RightUpLeg  -11.727 -10.3577 -1.3011
RightLeg  9.27202 9.47755 0.926009
RightFoot  3.48668 -0.00900428 0.615511
RightToes  -30.3751 -0.148757 -0.256803
